HIERARCHY
ROOT Hips
{
  OFFSET 1.44925e-005 102.336 -0.101585
  CHANNELS 6 Xposition Yposition Zposition Zrotation Xrotation Yrotation
  JOINT LeftUpLeg
  {
    OFFSET 8.9458 -8.66707 0.101652
    CHANNELS 3 Zrotation Xrotation Yrotation
    JOINT LeftLeg
    {
      OFFSET 0 -44.4227 1.3727
      CHANNELS 3 Zrotation Xrotation Yrotation
      JOINT LeftFoot
      {
        OFFSET -0.253549 -42.0924 -1.46059
        CHANNELS 3 Zrotation Xrotation Yrotation
        JOINT LeftToes
        {
          OFFSET -0.04 -4.41509 8.4991
          CHANNELS 3 Zrotation Xrotation Yrotation
          End Site
          {
            OFFSET 0.08 -0.047448 9.77979
          }
        }
      }
    }
  }
  JOINT Spine
  {
    OFFSET 0 11.8905 0
    CHANNELS 3 Zrotation Xrotation Yrotation
    JOINT Spine1
    {
      OFFSET 0 25.6574 0.127663
      CHANNELS 3 Zrotation Xrotation Yrotation
      JOINT RightShoulder
      {
        OFFSET -8.99 -0.362252 -0.22
        CHANNELS 3 Zrotation Xrotation Yrotation
        JOINT RightArm
        {
          OFFSET -10.2827 -0.00338 0.322123
          CHANNELS 3 Zrotation Xrotation Yrotation
          JOINT RightForeArm
          {
            OFFSET -26.364 0.099144 -1.42434
            CHANNELS 3 Zrotation Xrotation Yrotation
            JOINT RightHand
            {
              OFFSET -22.0324 0.085362 1.02216
              CHANNELS 3 Zrotation Xrotation Yrotation
              End Site
              {
                OFFSET -13.3284 -0.6 1.50291
              }
            }
          }
        }
      }
      JOINT LeftShoulder1
      {
        OFFSET 8.99 -0.362252 -0.22
        CHANNELS 3 Zrotation Xrotation Yrotation
        JOINT LeftArm
        {
          OFFSET 10.2827 -0.00337999 0.322123
          CHANNELS 3 Zrotation Xrotation Yrotation
          JOINT LeftForeArm
          {
            OFFSET 26.2597 0.099144 -1.42434
            CHANNELS 3 Zrotation Xrotation Yrotation
            JOINT LeftHand
            {
              OFFSET 22.0902 0.085362 1.02216
              CHANNELS 3 Zrotation Xrotation Yrotation
              End Site
              {
                OFFSET 13.419 -0.6 1.50291
              }
            }
          }
        }
      }
      JOINT Head
      {
        OFFSET 0 8.73416 0.011341
        CHANNELS 3 Zrotation Xrotation Yrotation
        End Site
        {
          OFFSET -0.29 12.7742 2.51395
        }
      }
    }
  }
  JOINT RightUpLeg
  {
    OFFSET -8.9458 -8.66707 0.101652
    CHANNELS 3 Zrotation Xrotation Yrotation
    JOINT RightLeg
    {
      OFFSET 0 -44.4227 1.3727
      CHANNELS 3 Zrotation Xrotation Yrotation
      JOINT RightFoot
      {
        OFFSET 0.253549 -42.0924 -1.46059
        CHANNELS 3 Zrotation Xrotation Yrotation
        JOINT RightToes
        {
          OFFSET 0.04 -4.41509 8.4991
          CHANNELS 3 Zrotation Xrotation Yrotation
          End Site
          {
            OFFSET -0.08 -0.137448 9.77979
          }
        }
      }
    }
  }
}
MOTION
Frames:	19
Frame Time:	0.0333333
255.331 103.394 5.33431 -3.55596 -0.584314 -91.6892 -0.203134 0.495312 2.61998 -0.470096 8.84127 20.9517 -2.30366 -10.0735 0.000734049 -1.33387e-009 8.7523e-006 -1.47837e-008 1.46686 8.87738 0.395196 -2.05495 -0.724513 0.94363 38.2895 1.79741 0.0563882 40.8311 -18.2464 7.16522 8.39788 37.8535 7.99318 -8.16736 9.50226 0.795756 -44.0276 3.37299 -3.17413 -27.4719 -12.4125 0.912972 -3.48176 32.5484 -16.3864 5.82328 9.61819 -0.917488 1.02387 -6.20937 -3.54299 -0.879135 0.409703 -3.8871 -0.298659 11.4932 -6.76354 2.33082 -12.4202 -0.10907 0.0462048 0.000530889 0.662642 
255.292 103.394 5.3272 -3.53743 -0.5824 -91.7247 -0.203059 0.507435 2.62253 -0.46096 8.8353 20.9908 -2.31547 -10.0937 0.000734095 -1.33387e-009 8.7523e-006 -1.47837e-008 1.52351 8.81315 0.350279 -2.17722 -0.784922 0.918643 38.2864 1.79741 0.0563882 40.693 -17.3296 6.78946 8.30214 36.3247 8.53804 -8.16733 9.55879 -0.111356 -43.9668 3.37299 -3.17413 -27.4475 -12.3575 1.05765 -3.4556 32.485 -16.4341 5.82328 9.61819 -0.917488 1.10542 -5.9991 -3.28581 -0.864441 0.432609 -3.86772 -0.305011 11.4485 -6.75773 2.24999 -12.4202 -0.10907 0.0462048 0.000530889 0.662642 
255.237 103.394 5.31743 -3.47775 -0.567839 -91.8077 -0.18557 0.502546 2.63731 -0.460263 8.80134 21.0674 -2.3742 -10.1021 0.000734114 -1.33387e-009 8.7523e-006 -1.47837e-008 1.56378 8.75491 0.346077 -2.2533 -0.963 0.92377 38.2746 1.79741 0.0563882 40.4598 -15.8075 6.1754 8.13418 34.0227 9.44272 -8.30633 9.61751 -1.15353 -43.8969 3.37298 -3.17413 -27.4322 -12.5349 1.19403 -3.48911 32.6588 -16.3447 5.82328 9.61819 -0.917488 1.15831 -5.67783 -3.03272 -0.833187 0.417425 -3.82142 -0.32437 11.4024 -6.69487 2.23479 -12.422 -0.109071 0.0462048 0.000530889 0.662642 
255.193 103.394 5.31228 -3.43474 -0.567309 -91.8571 -0.178662 0.509578 2.64707 -0.472064 8.75817 21.1138 -2.42802 -10.1 0.000734109 -1.33387e-009 8.7523e-006 -1.47837e-008 1.53347 8.68576 0.368632 -2.21957 -0.966199 0.939016 38.2717 1.79741 0.0563882 40.3666 -14.8663 5.92402 8.01593 32.9732 9.96752 -8.44892 9.59958 -0.948141 -43.8727 3.37303 -3.17413 -27.4357 -12.7379 1.19991 -3.49807 32.8439 -16.2778 5.82328 9.61819 -0.917488 1.15406 -5.57038 -2.92115 -0.823229 0.401161 -3.79817 -0.342971 11.386 -6.65718 2.28426 -12.4287 -0.109074 0.0462048 0.000530889 0.662642 
255.157 103.394 5.3149 -3.43891 -0.591342 -91.8559 -0.200115 0.549338 2.64371 -0.487311 8.73674 21.1156 -2.42405 -10.1087 0.000734129 -1.33387e-009 8.7523e-006 -1.47837e-008 1.46679 8.64448 0.371218 -2.15445 -0.807093 0.931522 38.2862 1.79741 0.0563882 40.4182 -14.7418 6.03472 7.91232 33.4755 10.0391 -8.48126 9.5117 0.390298 -43.8899 3.37323 -3.17413 -27.4348 -12.6873 1.17191 -3.43923 32.7662 -16.3641 5.82328 9.61819 -0.917488 1.10733 -5.70135 -2.91276 -0.847487 0.425432 -3.82474 -0.346535 11.3808 -6.75949 2.24701 -12.423 -0.109072 0.0462048 0.000530889 0.662642 
255.117 103.394 5.32723 -3.43685 -0.604054 -91.8701 -0.218665 0.567582 2.63893 -0.495958 8.75294 21.1275 -2.4007 -10.1346 0.000734189 -1.33387e-009 8.7523e-006 -1.47837e-008 1.42516 8.70092 0.388898 -2.08103 -0.821354 0.936152 38.2814 1.79741 0.0563882 40.431 -14.7996 6.01964 7.76343 34.1152 10.0988 -8.64906 9.43324 1.44705 -43.9217 3.37354 -3.17413 -27.4276 -12.7384 1.1412 -3.49645 32.8557 -16.2771 5.82328 9.61819 -0.917488 0.968121 -5.84438 -3.06131 -0.865657 0.425897 -3.85485 -0.339483 11.4004 -6.9681 2.11218 -12.3833 -0.109055 0.0462048 0.000530889 0.662642 
255.071 103.393 5.34878 -3.39678 -0.577113 -91.9046 -0.204107 0.528682 2.64627 -0.495372 8.81163 21.1506 -2.40126 -10.1834 0.000734301 -1.33387e-009 8.7523e-006 -1.47837e-008 1.46015 8.72871 0.416392 -2.03793 -0.940033 0.956115 38.2395 1.79741 0.0563882 40.386 -14.7495 5.83567 7.60655 34.2513 10.2684 -8.92928 9.40444 1.6278 -43.9357 3.37394 -3.17414 -27.428 -13.2157 1.04374 -3.72576 33.4298 -15.8603 5.82328 9.61819 -0.917488 0.762963 -5.91258 -3.33856 -0.842901 0.374445 -3.83785 -0.340469 11.4534 -7.14754 2.03046 -12.3495 -0.109041 0.0462048 0.000530889 0.662642 
255.012 103.384 5.3743 -3.37931 -0.535836 -91.878 -0.175441 0.503742 2.66737 -0.490944 8.89358 21.1064 -2.37604 -10.2546 0.000734465 -1.33387e-009 8.7523e-006 -1.47837e-008 1.57767 8.55492 0.343862 -2.13399 -0.717705 0.905313 38.2003 1.79741 0.0563464 40.4784 -14.8484 5.95603 7.54811 34.6315 10.2436 -8.83833 9.40854 1.65006 -43.9117 3.37442 -3.17414 -27.4229 -13.5522 0.992971 -3.79709 33.7531 -15.6833 5.82328 9.61819 -0.917488 0.669906 -6.07818 -3.48881 -0.804083 0.398842 -3.80468 -0.347361 11.4447 -7.23773 2.06318 -12.3672 -0.109048 0.0462048 0.000530889 0.662642 
254.938 103.373 5.39833 -3.43251 -0.515196 -91.7776 -0.167595 0.560647 2.69255 -0.484506 8.96881 20.9846 -2.28393 -10.3242 0.000734627 -1.33387e-009 8.7523e-006 -1.47837e-008 1.69901 8.32879 0.152187 -2.34268 -0.217598 0.757091 38.2023 1.79741 0.0562312 40.7157 -15.0759 6.41209 7.6363 35.2511 9.97163 -8.38465 9.43689 1.63055 -43.8759 3.37496 -3.17414 -27.3902 -13.1191 1.19993 -3.48027 33.1084 -16.2046 5.82328 9.61819 -0.917488 0.77109 -6.41671 -3.4045 -0.796414 0.585817 -3.82373 -0.331543 11.2994 -7.2716 2.10282 -12.4101 -0.109066 0.0462048 0.000530889 0.662642 
254.859 103.368 5.42153 -3.50505 -0.497753 -91.7047 -0.167646 0.657292 2.71638 -0.473318 9.01467 20.8878 -2.19308 -10.3613 0.000734714 -1.33387e-009 8.7523e-006 -1.47837e-008 1.74799 8.37788 0.00536285 -2.4528 -0.067716 0.630991 38.2241 1.79741 0.0561887 40.8239 -15.0413 6.60366 7.81368 34.9074 9.80513 -8.36786 9.49603 0.745651 -43.8783 3.37553 -3.17414 -27.3607 -12.4429 1.56488 -3.12596 32.2115 -16.8508 5.82328 9.61819 -0.917488 0.860941 -6.68287 -3.41088 -0.80731 0.815124 -3.88535 -0.288515 11.1107 -7.27635 2.07764 -12.4119 -0.109067 0.0462048 0.000530889 0.662642 
254.786 103.367 5.44601 -3.53114 -0.443232 -91.7246 -0.127578 0.71918 2.75652 -0.469193 9.03354 20.8698 -2.16226 -10.3738 0.000734743 -1.33387e-009 8.7523e-006 -1.47837e-008 1.77385 8.6946 0.0137561 -2.39581 -0.465198 0.625984 38.2223 1.79741 0.0562045 40.6994 -14.686 6.2657 7.95967 33.4553 9.94529 -9.04093 9.56643 -0.799863 -43.914 3.37612 -3.17414 -27.3635 -12.3406 1.75177 -3.12859 32.1206 -16.8755 5.82328 9.61819 -0.917488 0.759137 -6.82383 -3.78339 -0.771052 0.936157 -3.89354 -0.269493 11.0153 -7.27124 2.0572 -12.3636 -0.109047 0.0462048 0.000530889 0.662642 
254.724 103.369 5.46783 -3.52101 -0.361872 -91.7862 -0.0432731 0.732366 2.83339 -0.493789 9.06861 20.8622 -2.13073 -10.4039 0.000734814 -1.33387e-009 8.7523e-006 -1.47837e-008 1.87054 8.94051 0.0736711 -2.3747 -0.894197 0.682459 38.2044 1.79741 0.0562643 40.5748 -14.3592 5.85553 7.9786 32.3144 10.2012 -9.44114 9.6144 -1.68649 -43.9219 3.3767 -3.17414 -27.3804 -12.6342 1.70585 -3.36137 32.5862 -16.4887 5.82328 9.61819 -0.917488 0.590273 -6.84651 -4.19749 -0.667394 0.962604 -3.78702 -0.326392 11.0113 -7.3075 2.11612 -12.3247 -0.109031 0.0462048 0.000530889 0.662642 
254.671 103.37 5.48328 -3.5115 -0.310809 -91.8221 0.0238954 0.720724 2.9183 -0.537138 9.14364 20.82 -2.04242 -10.4555 0.000734936 -1.33387e-009 8.7523e-006 -1.47837e-008 2.01342 8.95162 0.0572998 -2.5183 -0.976206 0.693872 38.205 1.79741 0.056354 40.6089 -14.2385 5.78008 7.88753 32.188 10.3623 -8.94352 9.63377 -1.72778 -43.8865 3.37725 -3.17415 -27.3643 -12.6765 1.68087 -3.46192 32.6545 -16.3602 5.82328 9.61819 -0.917488 0.605503 -6.66914 -4.09123 -0.561831 0.987084 -3.6268 -0.435413 10.998 -7.40215 2.21684 -12.3304 -0.109033 0.0462048 0.000530889 0.662642 
254.628 103.369 5.49698 -3.49613 -0.309396 -91.8339 0.0267263 0.703281 2.95052 -0.559442 9.19581 20.8027 -1.96329 -10.4766 0.000734986 -1.33387e-009 8.7523e-006 -1.47837e-008 2.09457 8.86865 0.00284996 -2.67554 -0.888468 0.666561 38.2203 1.79741 0.0564591 40.7007 -14.1231 5.89747 7.80316 32.3511 10.4475 -8.43025 9.65071 -1.73595 -43.8606 3.37776 -3.17415 -27.3005 -12.5253 1.74879 -3.42949 32.2628 -16.4981 5.82328 9.61819 -0.917488 0.797971 -6.21975 -3.45311 -0.520387 1.02821 -3.5264 -0.518627 10.9228 -7.48187 2.26359 -12.3474 -0.109006 0.0462048 0.000530889 0.662642 
254.6 103.365 5.51249 -3.44778 -0.328978 -91.8643 -0.00944681 0.669254 2.92905 -0.558356 9.1881 20.8592 -1.9625 -10.4626 0.000734953 -1.33387e-009 8.7523e-006 -1.47837e-008 2.07881 8.81282 0.00879457 -2.69071 -0.862999 0.672164 38.2179 1.79741 0.0565653 40.7486 -13.8853 5.95382 7.72281 32.5809 10.537 -8.78933 9.61143 -1.33462 -43.8758 3.37821 -3.17415 -27.2355 -12.6097 1.7232 -3.48908 32.0522 -16.4745 5.82328 9.61819 -0.917488 0.93129 -5.64497 -2.83852 -0.538236 1.00999 -3.51353 -0.542277 10.8767 -7.47052 2.22983 -12.366 -0.109186 0.0462048 0.000530889 0.662642 
254.588 103.362 5.5246 -3.36981 -0.345505 -91.9325 -0.0309157 0.608833 2.9155 -0.577751 9.15938 20.9493 -1.97919 -10.4609 0.000734949 -1.33387e-009 8.7523e-006 -1.47837e-008 2.02343 8.77832 0.0702721 -2.61861 -0.90154 0.718582 38.196 1.79741 0.0566585 40.8109 -13.7956 5.98289 7.56901 33.5476 10.5602 -9.47689 9.46987 0.28876 -43.9087 3.37857 -3.17415 -27.2051 -12.6997 1.58502 -3.6061 32.0443 -16.3405 5.82328 9.61819 -0.917488 0.924852 -5.38729 -2.66905 -0.568333 0.889404 -3.5211 -0.546329 10.9493 -7.39034 2.19994 -12.4059 -0.109736 0.0462048 0.000530889 0.662642 
254.587 103.359 5.53041 -3.29952 -0.364053 -91.9961 -0.0365572 0.544818 2.92363 -0.62153 9.14819 21.0118 -1.94139 -10.4767 0.000734986 -1.33387e-009 8.7523e-006 -1.47837e-008 1.97087 8.79454 0.108716 -2.56518 -1.00383 0.745629 38.1875 1.79741 0.0567243 40.9315 -14.1654 6.08979 7.47888 34.9343 10.3587 -9.56592 9.35043 1.83221 -43.9379 3.37882 -3.17415 -27.1729 -12.3499 1.55458 -3.59481 31.7854 -16.4427 5.82328 9.61819 -0.917488 0.88005 -5.4576 -2.81712 -0.591921 0.736627 -3.51065 -0.56599 11.0908 -7.32481 2.25514 -12.452 -0.110479 0.0462048 0.000530889 0.662642 
254.583 103.358 5.53743 -3.27408 -0.391029 -91.9912 -0.064235 0.520536 2.90258 -0.635082 9.14245 21.0296 -1.90684 -10.4709 0.000734972 -1.33387e-009 8.7523e-006 -1.47837e-008 1.92663 8.90032 0.088297 -2.54001 -1.18745 0.717944 38.2004 1.79741 0.0567485 41.0418 -14.7917 6.21329 7.66436 35.3296 9.957 -9.17587 9.4162 1.24947 -43.9613 3.37895 -3.17415 -27.0995 -11.8283 1.69043 -3.49206 31.36 -16.6992 5.82328 9.61819 -0.917488 0.880728 -5.48069 -2.91328 -0.623551 0.668887 -3.52243 -0.578465 11.1771 -7.31482 2.32876 -12.4719 -0.111224 0.0462048 0.000530889 0.662642 
254.572 103.359 5.55066 -3.28708 -0.410138 -91.9309 -0.10756 0.539963 2.85222 -0.604888 9.12829 21.0177 -1.94756 -10.4491 0.000734921 -1.33387e-009 8.7523e-006 -1.47837e-008 1.90768 9.00256 0.0489964 -2.52933 -1.3176 0.674655 38.2051 1.79741 0.0567166 41.0797 -15.1112 6.25824 8.00641 34.3568 9.65263 -8.97395 9.57405 -0.865584 -43.9633 3.37893 -3.17415 -27.0264 -11.699 1.78571 -3.46242 31.252 -16.7676 5.82328 9.61819 -0.917488 0.910068 -5.40026 -2.84299 -0.659232 0.708922 -3.57417 -0.55744 11.1549 -7.33291 2.29307 -12.4735 -0.111803 0.0462048 0.000530889 0.662642 
